<?xml version="1.0" encoding="UTF-8"?>
<!DOCTYPE svg PUBLIC "-//W3C//DTD SVG 1.1//EN" "http://www.w3.org/Graphics/SVG/1.1/DTD/svg11.dtd">
<svg xmlns="http://www.w3.org/2000/svg" version="1.1" width="32px" height="32px" style="shape-rendering:geometricPrecision; text-rendering:geometricPrecision; image-rendering:optimizeQuality; fill-rule:evenodd; clip-rule:evenodd" xmlns:xlink="http://www.w3.org/1999/xlink">
<g><path style="opacity:0.388" fill="#aaabad" d="M 11.5,1.5 C 11.5,1.16667 11.5,0.833333 11.5,0.5C 20.9398,-1.44703 27.6064,1.88631 31.5,10.5C 31.5,13.8333 31.5,17.1667 31.5,20.5C 31.1667,20.5 30.8333,20.5 30.5,20.5C 29.8333,20.5 29.1667,20.5 28.5,20.5C 30.9292,7.05749 25.2625,0.724154 11.5,1.5 Z"/></g>
<g><path style="opacity:1" fill="#f8f8f8" d="M 11.5,1.5 C 25.2625,0.724154 30.9292,7.05749 28.5,20.5C 28.5,20.8333 28.5,21.1667 28.5,21.5C 26.9731,21.573 25.9731,20.9063 25.5,19.5C 20.9615,15.3714 16.9615,10.7047 13.5,5.5C 11.9291,4.69063 10.2624,4.35729 8.5,4.5C 7.69914,11.8947 10.3658,17.5613 16.5,21.5C 18.6467,23.4695 20.98,25.3029 23.5,27C 14.6117,31.6969 7.61165,29.8636 2.5,21.5C -0.858244,11.8853 2.14176,5.21865 11.5,1.5 Z"/></g>
<g><path style="opacity:0.422" fill="#727375" d="M 11.5,0.5 C 11.5,0.833333 11.5,1.16667 11.5,1.5C 2.14176,5.21865 -0.858244,11.8853 2.5,21.5C 1.83333,21.5 1.16667,21.5 0.5,21.5C 0.67158,20.5084 0.338246,19.8417 -0.5,19.5C -0.5,16.8333 -0.5,14.1667 -0.5,11.5C 1.57282,5.76162 5.57282,2.09495 11.5,0.5 Z"/></g>
<g><path style="opacity:1" fill="#8d8e90" d="M 25.5,19.5 C 23.3736,20.0482 21.3736,20.7148 19.5,21.5C 18.3478,20.375 17.3478,20.375 16.5,21.5C 10.3658,17.5613 7.69914,11.8947 8.5,4.5C 10.2624,4.35729 11.9291,4.69063 13.5,5.5C 16.9615,10.7047 20.9615,15.3714 25.5,19.5 Z"/></g>
<g><path style="opacity:0.988" fill="#656668" d="M 25.5,19.5 C 25.9731,20.9063 26.9731,21.573 28.5,21.5C 25.6253,26.5887 22.6253,26.5887 19.5,21.5C 21.3736,20.7148 23.3736,20.0482 25.5,19.5 Z"/></g>
<g><path style="opacity:0.172" fill="#1d1b1e" d="M 19.5,21.5 C 22.6253,26.5887 25.6253,26.5887 28.5,21.5C 28.5,21.1667 28.5,20.8333 28.5,20.5C 29.1667,20.5 29.8333,20.5 30.5,20.5C 28.365,26.3057 24.365,29.9723 18.5,31.5C 16.5,31.5 14.5,31.5 12.5,31.5C 7.01395,30.0191 3.01395,26.6858 0.5,21.5C 1.16667,21.5 1.83333,21.5 2.5,21.5C 7.61165,29.8636 14.6117,31.6969 23.5,27C 20.98,25.3029 18.6467,23.4695 16.5,21.5C 17.3478,20.375 18.3478,20.375 19.5,21.5 Z"/></g>
</svg>
